<svg width="114" height="29" viewBox="0 0 114 29" fill="none" xmlns="http://www.w3.org/2000/svg">
<path d="M34.8281 8.44141V4.33984H32.0859V16H34.7227V19H24.8203V16H27.5039V4.33984H24.8203V8.44141H21.8203V1.33984H37.8047V8.44141H34.8281ZM46.2539 4.33984V16H48.9727V19H38.9883V16H41.6484V4.33984H38.9883V1.33984H48.9727V4.33984H46.2539ZM66.1641 6.95312C66.1641 8.875 65.5625 10.293 64.3594 11.207C63.1641 12.1133 61.3008 12.5664 58.7695 12.5664H56.918V16H59.3906V19H50.0859V16H52.3125V4.33984H50.0859V1.33984H58.6758C61.1992 1.33984 63.0781 1.80078 64.3125 2.72266C65.5469 3.63672 66.1641 5.04687 66.1641 6.95312ZM61.3125 6.95312C61.3125 6.21875 61.1641 5.66016 60.8672 5.27734C60.5703 4.88672 60.1406 4.63281 59.5781 4.51562C59.0234 4.39844 58.3789 4.33984 57.6445 4.33984H56.918V9.63672H57.6445C58.6211 9.63672 59.375 9.53906 59.9062 9.34375C60.4453 9.14062 60.8125 8.84766 61.0078 8.46484C61.2109 8.08203 61.3125 7.57812 61.3125 6.95312Z" fill="black"/>
<path d="M74.3555 4.33984V18.7891C74.3555 22.5625 72.6133 24.4492 69.1289 24.4492C68.4258 24.4492 67.5391 24.3438 66.4688 24.1328V20.9219C66.9922 21.0625 67.4375 21.1328 67.8047 21.1328C68.5469 21.1328 69.0586 20.9258 69.3398 20.5117C69.6289 20.0977 69.7734 19.457 69.7734 18.5898V4.33984H67.1602V1.33984H76.7812V4.33984H74.3555ZM88.8164 4.33984L92.5078 16H94.6172V19H85.9336V16H88.1953L87.3516 13H82.7695L81.832 16H84.1875V19H76.3828V16H78.5625L81.9961 4.33984H79.6406V1.33984H91.1953V4.33984H88.8164ZM85.1367 5.05469L83.5547 10.3867H86.625L85.1367 5.05469ZM111.516 6.15625C111.516 7.23438 111.262 8.14062 110.754 8.875C110.254 9.60938 109.492 10.207 108.469 10.668L111.316 16H113.602V19H108.223L104.238 11.2773H102.223V16H104.438V19H95.1914V16H97.6172V4.33984H95.1914V1.33984H105.27C107.223 1.33984 108.75 1.75391 109.852 2.58203C110.961 3.40234 111.516 4.59375 111.516 6.15625ZM106.711 6.35547C106.711 5.68359 106.496 5.17969 106.066 4.84375C105.637 4.50781 105.051 4.33984 104.309 4.33984H102.223V8.44141H103.91C105.777 8.44141 106.711 7.74609 106.711 6.35547Z" fill="#F27A0A"/>
<rect y="1" width="14" height="3" rx="1.5" fill="black"/>
<rect y="5" width="4" height="4" rx="2" fill="black"/>
<rect x="5" y="5" width="4" height="4" rx="2" fill="black"/>
<rect x="10" y="5" width="4" height="4" rx="2" fill="#F27A0A"/>
<rect y="10" width="4" height="4" rx="2" fill="black"/>
<rect x="5" y="10" width="4" height="4" rx="2" fill="black"/>
<rect x="10" y="10" width="4" height="4" rx="2" fill="#F27A0A"/>
<rect y="15" width="4" height="4" rx="2" fill="black"/>
<rect x="5" y="15" width="4" height="4" rx="2" fill="black"/>
<rect x="10" y="15" width="4" height="4" rx="2" fill="#F27A0A"/>
</svg>
